<?xml version="1.0" encoding="utf-8"?>
<!-- Generator: Adobe Illustrator 23.0.2, SVG Export Plug-In . SVG Version: 6.00 Build 0)  -->
<svg version="1.1" id="katman_1" xmlns="http://www.w3.org/2000/svg" xmlns:xlink="http://www.w3.org/1999/xlink" x="0px" y="0px"
	 viewBox="0 0 418.4 185.1" style="enable-background:new 0 0 418.4 185.1;" xml:space="preserve">
<style type="text/css">
	.st0{fill:#FFFFFF;}
</style>
<g>
	<g id="LINE_1_">
		<g id="XMLID_2_">
			<g>
				<path class="st0" d="M418.4,0v185.1H224.6V0H418.4z M410.1,176.9V8.2H232.8v168.7L410.1,176.9L410.1,176.9z"/>
				<path class="st0" d="M400,109v12.5h-6.3v38.9h-12.5v-38.9h-64.4l76.9-96.9V109C393.7,109,400,109,400,109z M381.2,109V60.6
					L342.8,109H381.2z"/>
				<polygon class="st0" points="329.3,24.7 329.3,37.2 261.8,37.2 261.8,88 316.8,88 316.8,100.5 261.8,100.5 261.8,160.5 
					249.3,160.5 249.3,24.7 				"/>
				<polygon class="st0" points="208.2,88 208.2,100.5 183.1,100.5 183.1,160.5 170.5,160.5 170.5,50.3 183.1,50.3 183.1,88 				"/>
				<polygon class="st0" points="158,88 158,100.5 132.9,100.5 132.9,160.5 120.4,160.5 120.4,88 				"/>
				<path class="st0" d="M107.8,24.7v135.8l-56.3-44.7L16,160.5H0L41.7,108l-4.9-3.9l7.8-9.8l4.9,3.9L107.8,24.7z M95.3,134.5V60.6
					l-36,45.3L95.3,134.5z"/>
			</g>
		</g>
	</g>
</g>
</svg>
